<?xml version="1.0" encoding="UTF-8" standalone="no"?><!DOCTYPE svg PUBLIC "-//W3C//DTD SVG 1.1//EN" "http://www.w3.org/Graphics/SVG/1.1/DTD/svg11.dtd"><svg width="100%" height="100%" viewBox="0 0 10 11" version="1.1" xmlns="http://www.w3.org/2000/svg" xmlns:xlink="http://www.w3.org/1999/xlink" xml:space="preserve" xmlns:serif="http://www.serif.com/" style="fill-rule:evenodd;clip-rule:evenodd;stroke-linejoin:round;stroke-miterlimit:1.41421;"><path d="M9,0.75l-0.75,0l0,1.125c0,0.21 -0.165,0.375 -0.375,0.375l-1.5,0c-0.21,0 -0.375,-0.165 -0.375,-0.375l0,-1.125l-2.25,0l0,1.125c0,0.21 -0.165,0.375 -0.375,0.375l-1.5,0c-0.21,0 -0.375,-0.165 -0.375,-0.375l0,-1.125l-0.75,0c-0.413,0 -0.75,0.338 -0.75,0.75l0,8.25c0,0.413 0.337,0.75 0.75,0.75l8.25,0c0.413,0 0.75,-0.337 0.75,-0.75l0,-8.25c0,-0.412 -0.337,-0.75 -0.75,-0.75Zm0,9l-8.25,0l0,-6.75l8.25,0l0,6.75Zm-6,-8.25l-0.75,0l0,-1.5l0.75,0l0,1.5Zm4.5,0l-0.75,0l0,-1.5l0.75,0l0,1.5Zm-3.75,3l-0.75,0l0,-0.75l0.75,0l0,0.75Zm1.5,0l-0.75,0l0,-0.75l0.75,0l0,0.75Zm1.5,0l-0.75,0l0,-0.75l0.75,0l0,0.75Zm1.5,0l-0.75,0l0,-0.75l0.75,0l0,0.75Zm-6,1.5l-0.75,0l0,-0.75l0.75,0l0,0.75Zm1.5,0l-0.75,0l0,-0.75l0.75,0l0,0.75Zm1.5,0l-0.75,0l0,-0.75l0.75,0l0,0.75Zm1.5,0l-0.75,0l0,-0.75l0.75,0l0,0.75Zm1.5,0l-0.75,0l0,-0.75l0.75,0l0,0.75Zm-6,1.5l-0.75,0l0,-0.75l0.75,0l0,0.75Zm1.5,0l-0.75,0l0,-0.75l0.75,0l0,0.75Zm1.5,0l-0.75,0l0,-0.75l0.75,0l0,0.75Zm1.5,0l-0.75,0l0,-0.75l0.75,0l0,0.75Zm1.5,0l-0.75,0l0,-0.75l0.75,0l0,0.75Zm-6,1.5l-0.75,0l0,-0.75l0.75,0l0,0.75Zm1.5,0l-0.75,0l0,-0.75l0.75,0l0,0.75Zm1.5,0l-0.75,0l0,-0.75l0.75,0l0,0.75Zm1.5,0l-0.75,0l0,-0.75l0.75,0l0,0.75Z" style="fill:#fe4704;"/></svg>